<svg aria-hidden="true" style="position: absolute; width: 0; height: 0; overflow: hidden;" version="1.1" xmlns="http://www.w3.org/2000/svg" xmlns:xlink="http://www.w3.org/1999/xlink">
<defs>
<symbol id="icon-coffeescript" viewBox="0 0 32 32">
<path d="M6.187 9.96c2.8 0.707 6.373 1.067 10.68 1.067 4.4 0 7.893-0.36 10.68-1.067 2.973-0.693 4.4-1.627 4.4-2.507 0-0.627-0.64-1.24-1.8-1.707 0.267 0.173 0.467 0.467 0.467 0.787 0 0.893-1.347 1.627-4.053 2.24-2.507 0.547-5.707 0.933-9.6 0.933-3.76 0-7.107-0.387-9.52-0.907-2.6-0.64-3.96-1.333-3.96-2.24 0-0.373 0.173-0.693 0.693-1.067-1.627 0.627-2.507 1.16-2.507 1.96 0.093 0.907 1.547 1.813 4.52 2.507zM12.44 7.080c3.027-0.267 3.907-2.213 7.453-2.533 1.747-0.133 2.853 0.213 2.973 0.827 0.107 0.573-0.76 0.96-1.813 1.040-1.453 0.147-2.053-0.373-2.173-0.867-1.080 0.12-1.253 0.573-1.2 0.893 0.12 0.613 1.427 1.227 3.667 1.013 2.533-0.2 3.387-1.2 3.173-2.2-0.267-1.307-2.213-2.4-5.707-2.067-4.48 0.4-4.453 2.48-7.507 2.733-1.253 0.12-1.947-0.173-2.067-0.667-0.080-0.493 0.533-0.733 1.253-0.787 0.667-0.067 1.48 0.053 1.867 0.267 0.28-0.147 0.373-0.293 0.347-0.467-0.133-0.467-1.053-0.667-2.213-0.587-2.267 0.2-2.267 1.213-2.187 1.667 0.227 1.16 1.973 1.933 4.133 1.733zM27.667 12.2c-2.8 0.653-6.373 1.080-10.68 1.080-4.4 0-7.987-0.453-10.773-1.067-2.507-0.64-3.84-1.347-4.307-2.080 0.24 1.64 0.653 3.227 1.187 4.733-0.64 0.4-1.213 0.893-1.733 1.56-0.852 1.032-1.368 2.367-1.368 3.823 0 0.109 0.003 0.217 0.009 0.325l-0.001-0.015c0.103 1.43 0.818 2.674 1.882 3.485l0.012 0.009c1.16 0.907 2.413 1.173 3.84 0.907 0.547-0.093 1.16-0.373 1.72-0.56-1.173 0-2.16-0.373-3.147-1.16-1.058-0.742-1.792-1.884-1.984-3.201l-0.003-0.026c-0.267-1.253 0-2.413 0.707-3.44 0.16-0.2 0.333-0.373 0.52-0.533 0.4 0.973 0.827 1.933 1.307 2.827 1.080 1.64 2.16 3.067 3.24 4.613 0.467 0.907 0.773 1.8 0.987 2.693 0.715 0.979 1.744 1.692 2.937 1.992l0.036 0.008c1.533 0.533 3.133 0.773 4.773 0.68h0.173c0.177 0.008 0.385 0.013 0.594 0.013 1.548 0 3.035-0.259 4.421-0.735l-0.096 0.029c1.179-0.352 2.166-1.049 2.87-1.973l0.010-0.014h0.093c0.173-0.893 0.467-1.787 0.893-2.693 1.067-1.56 2.16-2.973 3.227-4.613 1.39-2.52 2.432-5.45 2.963-8.554l0.023-0.166c-0.573 0.8-1.92 1.507-4.333 2.053z"></path>
</symbol>
<symbol id="icon-hand-peace-o" viewBox="0 0 24 28">
<path d="M20.125 10.109c0.578 0 1.156 0.109 1.672 0.359 1.5 0.672 2.203 1.906 2.203 3.531v2.766c0 0.984-0.125 1.969-0.359 2.906l-1.328 5.297c-0.438 1.781-2.031 3.031-3.875 3.031h-10.437c-2.203 0-4-1.797-4-4v-6.266l-3.734-9.812c-0.172-0.453-0.266-0.938-0.266-1.422 0-2.203 1.797-4 4-4 1.656 0 3.156 1.031 3.734 2.578l0.266 0.688v-1.766c0-2.203 1.797-4 4-4s4 1.797 4 4v4.078c0.25-0.047 0.5-0.078 0.75-0.078 1.437 0 2.75 0.828 3.375 2.109zM16.75 10c-0.688 0-1.313 0.406-1.594 1.031l-1.156 2.547-1.109 2.422h0.859c1.047 0 1.969 0.734 2.188 1.75l2.406-5.281c0.109-0.219 0.156-0.469 0.156-0.719 0-0.969-0.781-1.75-1.75-1.75zM20.203 12.109c-1.188 0-1.563 0.953-1.984 1.891l-2.063 4.531c-0.109 0.219-0.156 0.469-0.156 0.719 0 0.969 0.781 1.75 1.75 1.75 0.688 0 1.313-0.406 1.594-1.031l2.5-5.5c0.078-0.156 0.141-0.406 0.141-0.594 0-1.047-0.75-1.766-1.781-1.766zM2 6.5c0 0.25 0.047 0.484 0.125 0.719l3.875 10.156v1.078l1.594-1.734c0.422-0.453 1.031-0.719 1.656-0.719h3.094l1.656-3.641v-8.359c0-1.109-0.891-2-2-2s-2 0.891-2 2v10h-1l-3.125-8.219c-0.297-0.766-1.047-1.281-1.875-1.281-1.109 0-2 0.906-2 2zM18.438 26c0.922 0 1.719-0.625 1.937-1.516l1.328-5.297c0.203-0.781 0.297-1.609 0.297-2.422v-1.422l-2.203 4.844c-0.359 0.797-1.172 1.313-2.047 1.313-1.094 0-2.047-0.797-2.219-1.891-0.422 0.547-1.078 0.891-1.781 0.891h-3.25v-0.5h3.25c0.953 0 1.813-0.781 1.813-1.75 0-0.953-0.719-1.75-1.687-1.75h-4.625c-0.484 0-0.953 0.203-1.281 0.562l-1.969 2.125v4.813c0 1.109 0.891 2 2 2h10.437z"></path>
</symbol>
<symbol id="icon-location" viewBox="0 0 20 20">
<path d="M10 20s-7-9.13-7-13c0-3.866 3.134-7 7-7s7 3.134 7 7v0c0 3.87-7 13-7 13zM10 9c1.105 0 2-0.895 2-2s-0.895-2-2-2v0c-1.105 0-2 0.895-2 2s0.895 2 2 2v0z"></path>
</symbol>
<symbol id="icon-cake" viewBox="0 0 20 20">
<path d="M9.584 6.036c1.952 0 2.591-1.381 1.839-2.843-0.871-1.693 1.895-3.155 0.521-3.155-1.301 0-3.736 1.418-4.19 3.183-0.339 1.324 0.296 2.815 1.83 2.815zM14.796 14.987l-0.444-0.383c-0.487-0.42-1.25-0.418-1.735 0l-0.442 0.382c-0.62 0.534-1.397 0.801-2.174 0.801s-1.554-0.267-2.173-0.8l-0.444-0.384c-0.487-0.418-1.249-0.419-1.734 0.001l-0.444 0.383c-1.193 1.028-2.967 1.056-4.204 0.1v3.913c0 0.552 0.448 1 1 1h16c0.552 0 1-0.448 1-1v-3.912c-1.237 0.954-3.011 0.929-4.206-0.101zM10 7c-7.574 0-9 3.361-9 5v0.469l1.164 1.003c0.486 0.421 1.249 0.417 1.735 0l0.444-0.383c1.237-1.065 3.105-1.066 4.345 0l0.444 0.384c0.484 0.417 1.245 0.42 1.735-0.001l0.442-0.382c1.24-1.067 3.107-1.067 4.346-0.001l0.444 0.383c0.487 0.421 1.25 0.417 1.735 0l1.166-1.003v-0.469c0-1.639-1.426-5-9-5z"></path>
</symbol>
<symbol id="icon-leaf" viewBox="0 0 20 20">
<path d="M19.025 3.587c-4.356 2.556-4.044 7.806-7.096 10.175-2.297 1.783-5.538 0.88-7.412 0.113 0 0-1.27 1.603-2.181 3.74-0.305 0.717-1.644-0.073-1.409-0.68 2.978-7.685 13.11-11.519 13.11-11.519s-7.149-0.303-11.927 5.94c-0.128-1.426-0.34-5.284 3.36-7.65 5.016-3.211 14.572-0.715 13.555-0.119z"></path>
</symbol>
<symbol id="icon-truck" viewBox="0 0 32 32">
<path d="M32 18l-4-8h-6v-4c0-1.1-0.9-2-2-2h-18c-1.1 0-2 0.9-2 2v16l2 2h2.536c-0.341 0.588-0.536 1.271-0.536 2 0 2.209 1.791 4 4 4s4-1.791 4-4c0-0.729-0.196-1.412-0.536-2h11.073c-0.341 0.588-0.537 1.271-0.537 2 0 2.209 1.791 4 4 4s4-1.791 4-4c0-0.729-0.196-1.412-0.537-2h2.537v-6zM22 18v-6h4.146l3 6h-7.146z"></path>
</symbol>
<symbol id="icon-facebook" viewBox="0 0 32 32">
<path d="M19 6h5v-6h-5c-3.86 0-7 3.14-7 7v3h-4v6h4v16h6v-16h5l1-6h-6v-3c0-0.542 0.458-1 1-1z"></path>
</symbol>
<symbol id="icon-instagram" viewBox="0 0 32 32">
<path d="M16 2.881c4.275 0 4.781 0.019 6.462 0.094 1.563 0.069 2.406 0.331 2.969 0.55 0.744 0.288 1.281 0.638 1.837 1.194 0.563 0.563 0.906 1.094 1.2 1.838 0.219 0.563 0.481 1.412 0.55 2.969 0.075 1.688 0.094 2.194 0.094 6.463s-0.019 4.781-0.094 6.463c-0.069 1.563-0.331 2.406-0.55 2.969-0.288 0.744-0.637 1.281-1.194 1.837-0.563 0.563-1.094 0.906-1.837 1.2-0.563 0.219-1.413 0.481-2.969 0.55-1.688 0.075-2.194 0.094-6.463 0.094s-4.781-0.019-6.463-0.094c-1.563-0.069-2.406-0.331-2.969-0.55-0.744-0.288-1.281-0.637-1.838-1.194-0.563-0.563-0.906-1.094-1.2-1.837-0.219-0.563-0.481-1.413-0.55-2.969-0.075-1.688-0.094-2.194-0.094-6.463s0.019-4.781 0.094-6.463c0.069-1.563 0.331-2.406 0.55-2.969 0.288-0.744 0.638-1.281 1.194-1.838 0.563-0.563 1.094-0.906 1.838-1.2 0.563-0.219 1.412-0.481 2.969-0.55 1.681-0.075 2.188-0.094 6.463-0.094zM16 0c-4.344 0-4.887 0.019-6.594 0.094-1.7 0.075-2.869 0.35-3.881 0.744-1.056 0.412-1.95 0.956-2.837 1.85-0.894 0.888-1.438 1.781-1.85 2.831-0.394 1.019-0.669 2.181-0.744 3.881-0.075 1.713-0.094 2.256-0.094 6.6s0.019 4.887 0.094 6.594c0.075 1.7 0.35 2.869 0.744 3.881 0.413 1.056 0.956 1.95 1.85 2.837 0.887 0.887 1.781 1.438 2.831 1.844 1.019 0.394 2.181 0.669 3.881 0.744 1.706 0.075 2.25 0.094 6.594 0.094s4.888-0.019 6.594-0.094c1.7-0.075 2.869-0.35 3.881-0.744 1.050-0.406 1.944-0.956 2.831-1.844s1.438-1.781 1.844-2.831c0.394-1.019 0.669-2.181 0.744-3.881 0.075-1.706 0.094-2.25 0.094-6.594s-0.019-4.887-0.094-6.594c-0.075-1.7-0.35-2.869-0.744-3.881-0.394-1.063-0.938-1.956-1.831-2.844-0.887-0.887-1.781-1.438-2.831-1.844-1.019-0.394-2.181-0.669-3.881-0.744-1.712-0.081-2.256-0.1-6.6-0.1v0z"></path>
<path d="M16 7.781c-4.537 0-8.219 3.681-8.219 8.219s3.681 8.219 8.219 8.219 8.219-3.681 8.219-8.219c0-4.537-3.681-8.219-8.219-8.219zM16 21.331c-2.944 0-5.331-2.387-5.331-5.331s2.387-5.331 5.331-5.331c2.944 0 5.331 2.387 5.331 5.331s-2.387 5.331-5.331 5.331z"></path>
<path d="M26.462 7.456c0 1.060-0.859 1.919-1.919 1.919s-1.919-0.859-1.919-1.919c0-1.060 0.859-1.919 1.919-1.919s1.919 0.859 1.919 1.919z"></path>
</symbol>
<symbol id="icon-whatsapp" viewBox="0 0 32 32">
<path d="M27.281 4.65c-2.994-3-6.975-4.65-11.219-4.65-8.738 0-15.85 7.112-15.85 15.856 0 2.794 0.731 5.525 2.119 7.925l-2.25 8.219 8.406-2.206c2.319 1.262 4.925 1.931 7.575 1.931h0.006c0 0 0 0 0 0 8.738 0 15.856-7.113 15.856-15.856 0-4.238-1.65-8.219-4.644-11.219zM16.069 29.050v0c-2.369 0-4.688-0.637-6.713-1.837l-0.481-0.288-4.987 1.306 1.331-4.863-0.313-0.5c-1.325-2.094-2.019-4.519-2.019-7.012 0-7.269 5.912-13.181 13.188-13.181 3.519 0 6.831 1.375 9.319 3.862 2.488 2.494 3.856 5.8 3.856 9.325-0.006 7.275-5.919 13.188-13.181 13.188zM23.294 19.175c-0.394-0.2-2.344-1.156-2.706-1.288s-0.625-0.2-0.894 0.2c-0.262 0.394-1.025 1.288-1.256 1.556-0.231 0.262-0.462 0.3-0.856 0.1s-1.675-0.619-3.188-1.969c-1.175-1.050-1.975-2.35-2.206-2.744s-0.025-0.613 0.175-0.806c0.181-0.175 0.394-0.463 0.594-0.694s0.262-0.394 0.394-0.662c0.131-0.262 0.069-0.494-0.031-0.694s-0.894-2.15-1.219-2.944c-0.319-0.775-0.65-0.669-0.894-0.681-0.231-0.012-0.494-0.012-0.756-0.012s-0.694 0.1-1.056 0.494c-0.363 0.394-1.387 1.356-1.387 3.306s1.419 3.831 1.619 4.1c0.2 0.262 2.794 4.269 6.769 5.981 0.944 0.406 1.681 0.65 2.256 0.837 0.95 0.3 1.813 0.256 2.494 0.156 0.762-0.113 2.344-0.956 2.675-1.881s0.331-1.719 0.231-1.881c-0.094-0.175-0.356-0.275-0.756-0.475z"></path>
</symbol>
<symbol id="icon-youtube" viewBox="0 0 32 32">
<path d="M31.681 9.6c0 0-0.313-2.206-1.275-3.175-1.219-1.275-2.581-1.281-3.206-1.356-4.475-0.325-11.194-0.325-11.194-0.325h-0.012c0 0-6.719 0-11.194 0.325-0.625 0.075-1.987 0.081-3.206 1.356-0.963 0.969-1.269 3.175-1.269 3.175s-0.319 2.588-0.319 5.181v2.425c0 2.587 0.319 5.181 0.319 5.181s0.313 2.206 1.269 3.175c1.219 1.275 2.819 1.231 3.531 1.369 2.563 0.244 10.881 0.319 10.881 0.319s6.725-0.012 11.2-0.331c0.625-0.075 1.988-0.081 3.206-1.356 0.962-0.969 1.275-3.175 1.275-3.175s0.319-2.587 0.319-5.181v-2.425c-0.006-2.588-0.325-5.181-0.325-5.181zM12.694 20.15v-8.994l8.644 4.513-8.644 4.481z"></path>
</symbol>
</defs>
</svg>
